<?xml version="1.0" encoding="UTF-8"?><svg id="Layer_1" xmlns="http://www.w3.org/2000/svg" viewBox="0 0 1080 1080"><path d="M651.86,503.68c8.72,0,15.98,4.36,18.16,13.08l13.07,45.76c2.18,8.72,9.45,13.8,18.16,13.8h38.5c8.72,0,14.53,5.81,14.53,14.53v97.34c0,8.71-5.08,15.98-13.8,18.16l-44.31,11.62c-8.72,2.18-15.25,8.71-17.43,17.43l-12.35,45.04c-2.18,8.72-9.44,13.8-18.16,13.8h-216.47c-8.71,0-15.98-5.08-18.16-13.8l-12.35-45.04c-2.18-8.72-8.72-15.25-17.44-17.43l-44.31-11.62c-8.72-2.18-13.8-9.44-13.8-18.16v-43.59c0-8.71,5.81-14.53,14.53-14.53h42.86c8.71,0,14.53,5.81,14.53,14.53v44.31c0,18.89,15.25,32.69,33.42,32.69h217.92c18.16,0,33.42-13.8,33.42-32.69v-79.9c0-17.43-15.98-32.69-33.42-32.69h-220.82c-8.72,0-15.98-4.36-18.16-13.07l-13.07-45.76c-2.18-8.71-9.44-13.8-18.16-13.8h-38.5c-8.71,0-14.53-5.81-14.53-14.53v-96.61c0-8.72,5.08-15.98,13.8-18.16l44.31-12.35c8.72-2.18,15.25-8.72,17.44-17.43l12.35-45.04c2.18-8.72,9.44-13.8,18.16-13.8h215.01c8.72,0,15.98,5.08,18.16,13.8l12.35,45.04c2.18,8.71,8.71,15.25,17.43,17.43l45.76,12.35c8.72,2.18,13.8,9.44,13.8,18.16v43.58c0,8.72-5.81,14.53-14.53,14.53h-42.86c-8.71,0-14.53-5.81-14.53-14.53v-44.31c0-18.16-15.25-33.41-33.42-33.41h-217.92c-18.16,0-33.42,15.25-33.42,33.41v79.18c0,17.44,15.98,32.69,33.42,32.69h220.82Z" fill="#222"/></svg>